<svg xmlns="http://www.w3.org/2000/svg" viewBox="0 0 180 38" fill="none">
  <!-- Bridgestone 'B' Mark -->
  <g transform="translate(6, 6)" fill="currentColor">
    <path d="M0 0h14c4.4 0 8 3.6 8 8 0 2.8-1.5 5.3-3.7 6.7C20.8 16.1 23 19 23 22.5c0 4.7-3.8 8.5-8.5 8.5H0V0zm6 6v7h7c1.7 0 3-1.3 3-3s-1.3-3-3-3H6zm0 13v7h8c1.7 0 3-1.3 3-3.5S15.7 19 14 19H6z"/>
    <polygon points="12,11 16,14 12,17" fill="#FFF"/>
  </g>
  <!-- BRIDGESTONE Wordmark -->
  <text x="36" y="25" font-family="system-ui, -apple-system, sans-serif" font-weight="900" font-size="19" letter-spacing="0.04em" fill="currentColor">BRIDGESTONE</text>
</svg>